<svg width="150" height="150" viewBox="0 0 150 150" fill="none" xmlns="http://www.w3.org/2000/svg">
<path d="M44.1312 137.5C53.65 137.5 61.8812 134.106 68.5687 127.419C75.5875 120.4 79.2375 109.581 78.2625 99.3312L131.788 45.8062C135.441 42.1448 137.492 37.1826 137.49 32.0099C137.488 26.8372 135.432 21.8769 131.775 18.2187C124.412 10.8438 111.563 10.8438 104.2 18.2187L48.675 73.7438C36.7187 74.8 24.8812 83.25 24.8812 98.2375C24.8812 100.131 25.0125 101.912 25.1437 103.612C25.6437 110.056 25.825 112.475 15.95 117.412C14.9786 117.898 14.1504 118.628 13.547 119.53C12.9436 120.433 12.5858 121.478 12.5088 122.561C12.4318 123.644 12.6384 124.728 13.1081 125.707C13.5778 126.686 14.2945 127.526 15.1875 128.144C15.75 128.519 28.8937 137.5 44.1312 137.5C44.1229 137.5 44.1229 137.5 44.1312 137.5ZM113.038 27.05C114.371 25.7707 116.148 25.0574 117.996 25.0597C119.844 25.062 121.62 25.7798 122.95 27.0625C123.6 27.7125 124.116 28.4842 124.468 29.3335C124.819 30.1829 125 31.0932 125 32.0125C125 32.9318 124.819 33.8421 124.468 34.6915C124.116 35.5408 123.6 36.3125 122.95 36.9625L75 84.9125L65.0875 75L113.038 27.05ZM37.6125 102.644C37.5 101.244 37.3812 99.7813 37.3812 98.2313C37.3812 88.575 46.4125 86.025 51.1937 86.025C53.4187 86.025 55.5625 86.4813 57.2187 87.3125C63.125 90.2813 65.0937 95.3938 65.7 99.1625C66.8062 105.975 64.3437 113.962 59.725 118.581C55.4062 122.9 50.3062 125 44.1312 125C39.4437 125 34.8812 123.775 31.1625 122.331C37.925 116.25 38.1687 109.9 37.6125 102.644Z" fill="white"/>
</svg>
